<mxfile host="app.diagrams.net" agent="Mozilla/5.0 (Windows NT 10.0; Win64; x64) AppleWebKit/537.36 (KHTML, like Gecko) Chrome/141.0.0.0 Safari/537.36" version="28.2.8">
  <diagram id="bai7" name="Bai7">
    <mxGraphModel dx="1830" dy="753" grid="1" gridSize="10" guides="1" tooltips="1" connect="1" arrows="1" fold="1" page="1" pageScale="1" pageWidth="1169" pageHeight="827" math="0" shadow="0">
      <root>
        <mxCell id="0" />
        <mxCell id="1" parent="0" />
        <mxCell id="rideBoundary" value="" style="shape=rectangle;whiteSpace=wrap;html=1;strokeWidth=2;rounded=0;" parent="1" vertex="1">
          <mxGeometry x="190" y="70" width="690" height="520" as="geometry" />
        </mxCell>
        <mxCell id="uc_book" value="Đặt xe" style="ellipse;whiteSpace=wrap;html=1;aspect=fixed;" parent="rideBoundary" vertex="1">
          <mxGeometry x="154.3421052631579" y="240" width="145.26315789473685" height="63.55263157894737" as="geometry" />
        </mxCell>
        <mxCell id="uc_view_driver" value="Xem vị trí tài xế" style="ellipse;whiteSpace=wrap;html=1;aspect=fixed;" parent="rideBoundary" vertex="1">
          <mxGeometry x="131.64473684210526" y="105" width="190.6578947368421" height="63.55263157894737" as="geometry" />
        </mxCell>
        <mxCell id="uc_payment" value="Thanh toán" style="ellipse;whiteSpace=wrap;html=1;aspect=fixed;" parent="rideBoundary" vertex="1">
          <mxGeometry x="154.3421052631579" y="390" width="145.26315789473685" height="63.55263157894737" as="geometry" />
        </mxCell>
        <mxCell id="uc_promo" value="Nhận khuyến mãi" style="ellipse;whiteSpace=wrap;html=1;aspect=fixed;" parent="rideBoundary" vertex="1">
          <mxGeometry x="404.0131578947369" y="240" width="172.5" height="63.55263157894737" as="geometry" />
        </mxCell>
        <mxCell id="include_view" value="«include»" style="endArrow=open;dashed=1;html=1;fontSize=12;labelBackgroundColor=#ffffff;" parent="rideBoundary" source="uc_book" target="uc_view_driver" edge="1">
          <mxGeometry relative="1" as="geometry">
            <mxPoint y="-10" as="offset" />
          </mxGeometry>
        </mxCell>
        <mxCell id="extend_promo" value="«extend»" style="endArrow=open;dashed=1;html=1;fontSize=12;labelBackgroundColor=#ffffff;" parent="rideBoundary" source="uc_promo" target="uc_book" edge="1">
          <mxGeometry relative="1" as="geometry">
            <mxPoint y="-10" as="offset" />
          </mxGeometry>
        </mxCell>
        <mxCell id="include_payment" value="«include»" style="endArrow=open;dashed=1;html=1;fontSize=12;labelBackgroundColor=#ffffff;" parent="rideBoundary" source="uc_book" target="uc_payment" edge="1">
          <mxGeometry relative="1" as="geometry">
            <mxPoint y="-10" as="offset" />
          </mxGeometry>
        </mxCell>
        <mxCell id="Q0LvSvdrNYf66rucdWmH-1" value="Hệ thống đặt xe" style="text;html=1;whiteSpace=wrap;strokeColor=none;fillColor=none;align=center;verticalAlign=middle;rounded=0;" vertex="1" parent="rideBoundary">
          <mxGeometry x="236.05263157894737" y="20" width="199.73684210526318" height="30" as="geometry" />
        </mxCell>
        <mxCell id="actor_customer_ride" value="Khách hàng" style="shape=umlActor;verticalLabelPosition=bottom;verticalAlign=top;html=1;" parent="1" vertex="1">
          <mxGeometry x="60" y="160" width="40" height="80" as="geometry" />
        </mxCell>
        <mxCell id="actor_driver" value="Tài xế" style="shape=umlActor;verticalLabelPosition=bottom;verticalAlign=top;html=1;" parent="1" vertex="1">
          <mxGeometry x="60" y="360" width="40" height="80" as="geometry" />
        </mxCell>
        <mxCell id="actor_payment" value="Hệ thống thanh toán" style="shape=umlActor;verticalLabelPosition=bottom;verticalAlign=top;html=1;" parent="1" vertex="1">
          <mxGeometry x="60" y="590" width="40" height="80" as="geometry" />
        </mxCell>
        <mxCell id="assoc_customer_book" style="endArrow=none;html=1;" parent="1" source="actor_customer_ride" target="uc_book" edge="1">
          <mxGeometry relative="1" as="geometry" />
        </mxCell>
        <mxCell id="assoc_customer_view" style="endArrow=none;html=1;" parent="1" source="actor_customer_ride" target="uc_view_driver" edge="1">
          <mxGeometry relative="1" as="geometry" />
        </mxCell>
        <mxCell id="assoc_customer_payment" style="endArrow=none;html=1;" parent="1" source="actor_customer_ride" target="uc_payment" edge="1">
          <mxGeometry relative="1" as="geometry" />
        </mxCell>
        <mxCell id="assoc_driver_view" style="endArrow=none;html=1;" parent="1" source="actor_driver" target="uc_view_driver" edge="1">
          <mxGeometry relative="1" as="geometry" />
        </mxCell>
        <mxCell id="assoc_payment_system" style="endArrow=none;html=1;" parent="1" source="actor_payment" target="uc_payment" edge="1">
          <mxGeometry relative="1" as="geometry" />
        </mxCell>
      </root>
    </mxGraphModel>
  </diagram>
</mxfile>
